<svg width="516" height="403" viewBox="0 0 516 403" fill="none" xmlns="http://www.w3.org/2000/svg">
<path d="M515.55 355.604H0.449951V355.862H515.55V355.604Z" fill="#EBEBEB"/>
<path d="M244.607 309.657H45.6859C44.1275 309.655 42.6339 309.034 41.533 307.931C40.4321 306.828 39.8137 305.333 39.8137 303.775V24.1478C39.8273 22.5984 40.4516 21.117 41.5511 20.0252C42.6506 18.9334 44.1364 18.3195 45.6859 18.3169H244.607C246.167 18.3169 247.664 18.9367 248.767 20.0398C249.87 21.143 250.49 22.6392 250.49 24.1993V303.775C250.49 305.335 249.87 306.831 248.767 307.935C247.664 309.038 246.167 309.657 244.607 309.657ZM45.6859 18.5229C44.1958 18.5257 42.7678 19.1195 41.7151 20.1741C40.6625 21.2286 40.0713 22.6578 40.0713 24.1478V303.775C40.0713 305.265 40.6625 306.694 41.7151 307.749C42.7678 308.803 44.1958 309.397 45.6859 309.4H244.607C246.098 309.397 247.527 308.804 248.582 307.749C249.636 306.695 250.229 305.266 250.232 303.775V24.1478C250.229 22.6568 249.636 21.2277 248.582 20.1734C247.527 19.1192 246.098 18.5257 244.607 18.5229H45.6859Z" fill="#EBEBEB"/>
<path d="M467.45 309.657H268.518C266.959 309.655 265.464 309.034 264.362 307.932C263.259 306.829 262.638 305.334 262.636 303.775V24.1478C262.652 22.5975 263.279 21.116 264.38 20.0245C265.481 18.9331 266.968 18.3195 268.518 18.3169H467.45C468.997 18.3223 470.481 18.9373 471.578 20.0288C472.675 21.1203 473.298 22.6002 473.312 24.1478V303.775C473.312 305.332 472.695 306.825 471.596 307.927C470.497 309.03 469.006 309.652 467.45 309.657ZM268.518 18.5229C267.027 18.5257 265.598 19.1192 264.544 20.1734C263.49 21.2277 262.896 22.6568 262.893 24.1478V303.775C262.896 305.266 263.49 306.695 264.544 307.749C265.598 308.804 267.027 309.397 268.518 309.4H467.45C468.941 309.397 470.37 308.804 471.424 307.749C472.478 306.695 473.072 305.266 473.075 303.775V24.1478C473.072 22.6568 472.478 21.2277 471.424 20.1734C470.37 19.1192 468.941 18.5257 467.45 18.5229H268.518Z" fill="#EBEBEB"/>
<path d="M463.937 365.412H431.414V365.669H463.937V365.412Z" fill="#EBEBEB"/>
<path d="M345.917 362.62H311.498V362.878H345.917V362.62Z" fill="#EBEBEB"/>
<path d="M473.332 374.982H409.017V375.24H473.332V374.982Z" fill="#EBEBEB"/>
<path d="M74.3051 373.252H54.4944V373.509H74.3051V373.252Z" fill="#EBEBEB"/>
<path d="M114.689 373.252H83.4839V373.509H114.689V373.252Z" fill="#EBEBEB"/>
<path d="M251.963 368.904H195.755V369.162H251.963V368.904Z" fill="#EBEBEB"/>
<path d="M280.932 83.3534L222.231 142.064V337.586H428.261V83.3534H280.932Z" fill="white"/>
<path d="M428.261 338.143H222.221C222.073 338.143 221.932 338.084 221.828 337.98C221.723 337.875 221.665 337.734 221.665 337.586V142.065C221.664 141.992 221.679 141.919 221.707 141.852C221.736 141.785 221.777 141.724 221.829 141.673L280.551 82.9517C280.656 82.8498 280.796 82.791 280.942 82.7869H428.261C428.334 82.7869 428.406 82.8012 428.474 82.8292C428.541 82.8572 428.603 82.8981 428.654 82.9498C428.706 83.0015 428.747 83.0628 428.775 83.1303C428.803 83.1978 428.817 83.2701 428.817 83.3432V337.586C428.817 337.659 428.803 337.732 428.775 337.799C428.747 337.867 428.706 337.928 428.654 337.98C428.603 338.031 428.541 338.072 428.474 338.1C428.406 338.128 428.334 338.143 428.261 338.143ZM222.787 337.04H427.705V83.9098H281.169L222.787 142.291V337.04Z" fill="#E0E0E0"/>
<path d="M222.231 142.064L283.827 150.007L280.932 83.3534L222.231 142.064Z" fill="#E6E6E6"/>
<path d="M222.231 142.064H280.932V83.3534L222.231 142.064Z" fill="white"/>
<path d="M280.932 142.61H222.211C222.101 142.611 221.994 142.579 221.902 142.518C221.81 142.458 221.738 142.372 221.696 142.271C221.653 142.17 221.642 142.059 221.664 141.952C221.686 141.846 221.74 141.748 221.819 141.673L280.541 82.9516C280.62 82.8752 280.719 82.823 280.827 82.8011C280.934 82.7792 281.046 82.7885 281.149 82.828C281.249 82.8718 281.335 82.9437 281.395 83.0352C281.455 83.1266 281.488 83.2335 281.489 83.3431V142.064C281.486 142.21 281.426 142.349 281.322 142.451C281.218 142.553 281.078 142.61 280.932 142.61ZM223.571 141.508H280.386V84.6926L223.571 141.508Z" fill="#E0E0E0"/>
<path d="M337.16 226.613L372.187 191.586C372.97 190.804 373.591 189.874 374.014 188.852C374.438 187.829 374.656 186.733 374.656 185.627C374.656 184.52 374.438 183.424 374.014 182.401C373.591 181.379 372.97 180.449 372.187 179.667C371.405 178.884 370.475 178.263 369.453 177.84C368.43 177.416 367.334 177.198 366.227 177.198C365.121 177.198 364.025 177.416 363.002 177.84C361.98 178.263 361.05 178.884 360.268 179.667L325.241 214.694L290.214 179.667C288.634 178.086 286.49 177.198 284.254 177.198C282.019 177.198 279.875 178.086 278.295 179.667C276.714 181.247 275.826 183.391 275.826 185.627C275.826 187.862 276.714 190.006 278.295 191.586L313.322 226.613L278.295 261.64C276.714 263.22 275.826 265.364 275.826 267.6C275.826 269.835 276.714 271.979 278.295 273.559C279.875 275.14 282.019 276.028 284.254 276.028C286.49 276.028 288.634 275.14 290.214 273.559L325.241 238.532L360.268 273.559C361.848 275.14 363.992 276.028 366.227 276.028C368.463 276.028 370.607 275.14 372.187 273.559C373.768 271.979 374.656 269.835 374.656 267.6C374.656 265.364 373.768 263.22 372.187 261.64L337.16 226.613Z" fill="#F0F0F0"/>
<path d="M230.184 197.572C228.208 199.546 225.529 200.655 222.736 200.655C219.943 200.655 217.264 199.546 215.288 197.572L181.487 163.76L196.384 148.864L230.184 182.716C232.146 184.691 233.247 187.361 233.247 190.144C233.247 192.927 232.146 195.597 230.184 197.572Z" fill="#F0F0F0"/>
<path d="M181.482 163.826L196.379 148.929L197.756 150.306C199.184 151.734 199.986 153.67 199.986 155.689C199.986 157.708 199.184 159.645 197.756 161.073L193.626 165.203C192.198 166.631 190.261 167.433 188.242 167.433C186.223 167.433 184.287 166.631 182.859 165.203L181.482 163.826Z" fill="#E0E0E0"/>
<path d="M87.7181 55.1054C77.4961 65.3377 70.5371 78.3709 67.7209 92.5575C64.9046 106.744 66.3574 121.447 71.8957 134.808C77.434 148.169 86.8091 159.588 98.836 167.622C110.863 175.656 125.002 179.944 139.465 179.944C153.928 179.944 168.067 175.656 180.094 167.622C192.121 159.588 201.496 148.169 207.034 134.808C212.573 121.447 214.025 106.744 211.209 92.5575C208.393 78.3709 201.434 65.3377 191.212 55.1054C184.419 48.3055 176.352 42.9111 167.473 39.2306C158.594 35.5501 149.077 33.6558 139.465 33.6558C129.853 33.6558 120.336 35.5501 111.457 39.2306C102.578 42.9111 94.5111 48.3055 87.7181 55.1054ZM186.988 154.375C177.59 163.773 165.616 170.173 152.581 172.766C139.545 175.359 126.034 174.028 113.754 168.942C101.475 163.856 90.9802 155.243 83.5963 144.192C76.2123 133.141 72.2711 120.148 72.2711 106.858C72.2711 93.5667 76.2123 80.5743 83.5963 69.5233C90.9802 58.4724 101.475 49.8592 113.754 44.773C126.034 39.6867 139.545 38.3559 152.581 40.9487C165.616 43.5415 177.59 49.9416 186.988 59.3395C193.228 65.5796 198.178 72.9878 201.556 81.1409C204.933 89.2941 206.671 98.0326 206.671 106.858C206.671 115.682 204.933 124.421 201.556 132.574C198.178 140.727 193.228 148.135 186.988 154.375Z" fill="#E0E0E0"/>
<path d="M177.912 147.761C177.428 147.76 176.955 147.616 176.553 147.346C176.151 147.077 175.838 146.694 175.653 146.247C175.468 145.8 175.419 145.308 175.513 144.833C175.607 144.358 175.84 143.922 176.182 143.579C185.903 133.83 191.362 120.625 191.362 106.857C191.362 93.09 185.903 79.8845 176.182 70.1359C175.932 69.914 175.73 69.6433 175.589 69.3405C175.447 69.0378 175.369 68.7093 175.359 68.3753C175.35 68.0414 175.408 67.7089 175.531 67.3983C175.655 67.0878 175.84 66.8057 176.077 66.5695C176.313 66.3332 176.595 66.1477 176.905 66.0244C177.216 65.9011 177.548 65.8425 177.882 65.8524C178.216 65.8622 178.545 65.9402 178.848 66.0816C179.15 66.2229 179.421 66.4247 179.643 66.6744C190.282 77.339 196.257 91.7881 196.257 106.852C196.257 121.916 190.282 136.365 179.643 147.03C179.417 147.26 179.147 147.443 178.85 147.568C178.554 147.694 178.235 147.759 177.912 147.761Z" fill="#E0E0E0"/>
<path d="M86.5542 121.883C86.003 121.883 85.4678 121.697 85.0357 121.355C84.6036 121.013 84.3001 120.534 84.1745 119.998C82.3925 112.451 82.1678 104.621 83.514 96.985C84.8602 89.349 87.749 82.0676 92.004 75.5856C92.3619 75.0392 92.9223 74.6573 93.5618 74.524C94.2012 74.3907 94.8675 74.5169 95.414 74.8748C95.9604 75.2327 96.3423 75.7931 96.4756 76.4326C96.6089 77.0721 96.4827 77.7383 96.1248 78.2848C92.229 84.206 89.5804 90.8588 88.3406 97.8373C87.1007 104.816 87.2956 111.974 88.9134 118.875C88.9899 119.187 89.0035 119.512 88.9536 119.83C88.9036 120.148 88.791 120.453 88.6224 120.727C88.4537 121.001 88.2323 121.239 87.971 121.426C87.7097 121.614 87.4138 121.748 87.1002 121.821C86.9208 121.86 86.7379 121.881 86.5542 121.883Z" fill="#E0E0E0"/>
<path d="M101.018 147.761C100.368 147.76 99.7458 147.501 99.2873 147.04C94.8742 142.644 91.2191 137.548 88.4702 131.958C88.3281 131.67 88.2442 131.357 88.2232 131.036C88.2023 130.716 88.2447 130.394 88.348 130.09C88.4513 129.786 88.6135 129.505 88.8254 129.263C89.0372 129.022 89.2946 128.824 89.5828 128.682C89.8709 128.54 90.1842 128.456 90.5048 128.435C90.8254 128.414 91.147 128.457 91.4512 128.56C91.7554 128.663 92.0363 128.826 92.2778 129.037C92.5193 129.249 92.7167 129.507 92.8588 129.795C95.3792 134.9 98.7202 139.556 102.749 143.579C103.207 144.038 103.464 144.661 103.464 145.31C103.464 145.958 103.207 146.581 102.749 147.04C102.288 147.498 101.667 147.757 101.018 147.761Z" fill="#E0E0E0"/>
<path d="M217.856 291.737L227.486 301.368L205.122 323.731C203.979 324.875 202.427 325.518 200.81 325.518C199.192 325.518 197.641 324.875 196.497 323.731L195.485 322.719C194.341 321.575 193.699 320.024 193.699 318.406C193.699 316.789 194.341 315.237 195.485 314.094L217.849 291.73L217.856 291.737Z" fill="#F0F0F0"/>
<path d="M217.871 291.758L227.486 301.374L227.027 301.832C225.99 302.87 224.583 303.453 223.115 303.453C221.648 303.453 220.241 302.87 219.204 301.832L217.397 300.026C216.36 298.988 215.777 297.581 215.777 296.114C215.777 294.647 216.36 293.24 217.397 292.202L217.856 291.743L217.871 291.758Z" fill="#E0E0E0"/>
<path d="M293.387 239.501L270.826 262.052C268.322 264.736 266.958 268.287 267.022 271.957C267.087 275.627 268.574 279.129 271.171 281.723C273.768 284.317 277.271 285.801 280.941 285.862C284.611 285.922 288.161 284.555 290.843 282.048L299.97 272.931C301.892 261.358 299.553 249.481 293.387 239.501Z" fill="#F0F0F0"/>
<path d="M301.886 261.259C301.24 251.92 297.839 242.982 292.113 235.576C286.387 228.17 278.593 222.629 269.717 219.653C260.842 216.677 251.283 216.4 242.25 218.857C233.216 221.314 225.115 226.395 218.97 233.457C212.824 240.519 208.911 249.245 207.726 258.531C206.54 267.817 208.135 277.246 212.308 285.625C216.482 294.005 223.047 300.958 231.172 305.606C239.298 310.255 248.62 312.389 257.959 311.739C270.477 310.867 282.137 305.06 290.374 295.594C298.612 286.127 302.753 273.777 301.886 261.259ZM211.322 267.564C210.725 258.99 212.684 250.431 216.951 242.971C221.219 235.51 227.603 229.483 235.296 225.651C242.989 221.819 251.645 220.354 260.171 221.442C268.696 222.53 276.708 226.122 283.192 231.763C289.676 237.404 294.342 244.842 296.599 253.135C298.856 261.428 298.603 270.204 295.873 278.353C293.142 286.502 288.056 293.659 281.258 298.917C274.459 304.176 266.255 307.301 257.681 307.896C246.185 308.694 234.843 304.893 226.149 297.33C217.455 289.766 212.122 279.059 211.322 267.564Z" fill="#E0E0E0"/>
<path d="M230.576 292.257C226.93 289.097 223.944 285.248 221.789 280.931C219.634 276.614 218.352 271.913 218.018 267.1C217.994 266.887 218.014 266.672 218.076 266.467C218.137 266.262 218.24 266.071 218.377 265.907C218.514 265.743 218.683 265.608 218.874 265.511C219.065 265.413 219.273 265.356 219.487 265.341C219.7 265.326 219.914 265.355 220.117 265.426C220.319 265.496 220.505 265.607 220.663 265.751C220.821 265.895 220.949 266.07 221.038 266.264C221.127 266.459 221.175 266.67 221.181 266.884C221.812 275.755 225.933 284.015 232.64 289.856C239.348 295.696 248.096 298.642 256.97 298.047C257.388 298.018 257.8 298.157 258.116 298.432C258.432 298.708 258.626 299.097 258.654 299.515C258.683 299.933 258.544 300.345 258.269 300.661C257.994 300.977 257.604 301.171 257.186 301.199C252.381 301.533 247.556 300.915 242.99 299.381C238.424 297.846 234.205 295.426 230.576 292.257Z" fill="#E0E0E0"/>
<path d="M287.505 256.293C287.27 256.09 287.101 255.821 287.021 255.52C285.78 251.111 283.654 247.001 280.773 243.441C277.891 239.881 274.314 236.945 270.259 234.813C269.905 234.609 269.643 234.276 269.528 233.884C269.413 233.491 269.454 233.069 269.643 232.706C269.832 232.343 270.154 232.067 270.541 231.936C270.928 231.804 271.352 231.828 271.722 232.001C276.16 234.334 280.075 237.547 283.23 241.444C286.384 245.341 288.712 249.839 290.07 254.665C290.126 254.866 290.143 255.075 290.118 255.281C290.093 255.488 290.027 255.687 289.924 255.868C289.822 256.049 289.685 256.208 289.52 256.336C289.356 256.464 289.169 256.558 288.968 256.612C288.716 256.682 288.452 256.689 288.197 256.634C287.942 256.578 287.705 256.461 287.505 256.293Z" fill="#E0E0E0"/>
<path d="M251.19 230.672C250.876 230.392 250.683 230 250.655 229.58C250.626 229.162 250.764 228.75 251.038 228.434C251.312 228.117 251.7 227.922 252.117 227.89C256.135 227.611 260.172 227.991 264.068 229.013C264.271 229.067 264.461 229.16 264.628 229.287C264.795 229.414 264.936 229.572 265.041 229.754C265.147 229.935 265.216 230.135 265.244 230.343C265.272 230.551 265.26 230.763 265.206 230.966C265.153 231.169 265.06 231.359 264.933 231.526C264.806 231.693 264.647 231.833 264.466 231.939C264.284 232.045 264.084 232.114 263.876 232.142C263.668 232.17 263.457 232.157 263.254 232.104C259.699 231.163 256.013 230.815 252.344 231.074C251.922 231.095 251.508 230.951 251.19 230.672Z" fill="#E0E0E0"/>
<path d="M258 402.128C368.316 402.128 457.745 396.907 457.745 390.466C457.745 384.026 368.316 378.805 258 378.805C147.683 378.805 58.2544 384.026 58.2544 390.466C58.2544 396.907 147.683 402.128 258 402.128Z" fill="#F5F5F5"/>
<path d="M142.432 111.942C134.129 120.297 148.242 133.267 138.919 139.221C146.532 143.043 173.215 147.896 180.127 132.865C175.09 128.95 178.592 119.328 173.946 110.087C166.992 96.3856 134.129 102.453 142.432 111.942Z" fill="#263238"/>
<path d="M143.184 111.725C140.598 111.293 131.852 115.64 138.363 127.312C143.606 136.749 139.238 137.419 139.238 137.419C139.238 137.419 144.389 137.563 141.299 130.547C138.023 123.058 136.488 115.29 143.184 111.725Z" fill="#263238"/>
<path d="M204.429 185.838C204.111 185.255 203.576 184.82 202.94 184.627C202.304 184.435 201.618 184.499 201.03 184.808L200.422 185.127C200.226 185.23 199.855 185.477 199.557 185.652C199.258 185.828 198.907 186.023 198.578 186.188C197.928 186.515 197.257 186.797 196.569 187.033C195.296 187.494 193.956 187.748 192.603 187.785C191.359 187.8 190.122 187.601 188.945 187.198C188.198 186.92 187.477 186.576 186.792 186.168C185.906 184.21 185.062 182.232 184.34 180.192C183.465 177.813 182.692 175.381 182.012 172.919C181.332 170.457 180.735 167.964 180.24 165.461C179.983 164.214 179.756 162.957 179.55 161.711L179.272 159.846C179.179 159.248 179.097 158.568 179.045 158.095V157.889C178.909 156.522 178.235 155.267 177.172 154.397C176.11 153.528 174.745 153.116 173.379 153.253C172.013 153.389 170.757 154.063 169.888 155.126C169.018 156.188 168.607 157.553 168.743 158.919C168.815 159.794 168.877 160.464 168.97 161.195C169.063 161.927 169.166 162.627 169.269 163.338C169.495 164.76 169.753 166.161 170.041 167.562C170.614 170.346 171.336 173.097 172.205 175.804C172.606 177.164 173.101 178.503 173.565 179.852C174.028 181.202 174.595 182.521 175.182 183.829C176.306 186.473 177.582 189.049 179.004 191.545L179.128 191.772C179.497 192.442 180.052 192.993 180.724 193.358C182.672 194.42 184.776 195.164 186.957 195.563C189.198 195.959 191.494 195.91 193.715 195.419C196.851 194.691 199.731 193.129 202.05 190.896C202.431 190.546 202.791 190.185 203.08 189.804C203.368 189.423 203.719 189.062 204.11 188.527C204.412 188.155 204.602 187.704 204.659 187.229C204.715 186.753 204.636 186.27 204.429 185.838Z" fill="#FF8B7B"/>
<path d="M211.28 176.195H210.982C209.996 176.174 209.018 176.381 208.125 176.799C207.231 177.217 206.446 177.835 205.831 178.606L200.855 184.849V189.114C204.852 190.7 209.92 186.425 209.92 186.425L212.486 185.776C213.349 185.561 214.102 185.033 214.599 184.294C215.095 183.556 215.3 182.66 215.175 181.779L214.804 179.275C214.683 178.425 214.261 177.646 213.614 177.081C212.967 176.516 212.139 176.201 211.28 176.195Z" fill="#FF8B7B"/>
<path d="M178.912 152.119C182.239 155.54 182.445 165.749 182.445 165.749L169.135 176.463C169.135 176.463 163.665 161.319 166.693 155.972C169.259 151.44 174.667 147.762 178.912 152.119Z" fill="#72BF44"/>
<g opacity="0.2">
<path d="M178.912 152.119C182.239 155.54 182.445 165.749 182.445 165.749L169.135 176.463C169.135 176.463 163.665 161.319 166.693 155.972C169.259 151.44 174.667 147.762 178.912 152.119Z" fill="white"/>
</g>
<path d="M156.886 381.638L164.241 382.441L165.251 362.455L157.895 361.642L156.886 381.638Z" fill="#FF8B7B"/>
<path d="M165.447 377.64H156.803C156.629 377.635 156.46 377.697 156.331 377.815C156.202 377.932 156.124 378.095 156.113 378.269L155.536 386.438C155.536 386.866 155.703 387.276 156.001 387.582C156.3 387.888 156.706 388.066 157.133 388.076C160.78 388.076 160.821 388.076 165.375 388.076H177.644C181.415 388.076 181.425 384.254 179.797 383.904C172.473 382.359 169.619 380.216 167.033 378.176C166.579 377.826 166.02 377.637 165.447 377.64Z" fill="#263238"/>
<path opacity="0.2" d="M165.251 362.466L164.726 372.768H157.329L157.895 361.652L165.251 362.466Z" fill="black"/>
<path d="M169.217 203.001C169.217 203.001 175.584 256.293 175.584 279.988C170.567 312.954 166.312 370.81 166.312 370.81L156.134 370.542C156.134 370.542 151.508 307.535 155.794 280.328C150.303 255.953 143.524 199.704 143.524 199.704L169.217 203.001Z" fill="#263238"/>
<path opacity="0.2" d="M149.592 217.836C148.379 218.37 147.202 218.982 146.069 219.67C147.47 230.188 149.314 243.426 151.271 255.644C154.609 245.589 152.806 223.481 149.592 217.836Z" fill="black"/>
<path d="M77.2307 363.084L83.2986 367.318L93.7654 350.258L87.6975 346.024L77.2307 363.084Z" fill="#FF8B7B"/>
<path d="M84.8337 365.082L79.6827 358.149C79.5846 358.007 79.4347 357.909 79.2651 357.876C79.0956 357.844 78.92 357.879 78.7761 357.974L71.8737 362.404C71.5294 362.657 71.2986 363.036 71.2311 363.458C71.1636 363.88 71.265 364.312 71.5132 364.66C73.6663 367.596 73.7075 367.617 76.4169 371.264C78.0961 373.499 81.4443 378.001 83.7519 381.102C86.0596 384.203 89.0781 381.854 88.3775 380.329C85.2869 373.54 85.2869 370.027 85.3488 366.689C85.3593 366.112 85.1781 365.546 84.8337 365.082Z" fill="#263238"/>
<path opacity="0.2" d="M93.7552 350.258L88.3673 359.056L81.8667 355.512L87.6976 346.024L93.7552 350.258Z" fill="black"/>
<path d="M114.452 370.233C109.187 370.233 98.2261 370.233 98.0406 362.486C97.8964 356.408 105.417 353.884 111.907 353.575C112.626 353.54 113.345 353.648 114.023 353.891C114.7 354.134 115.323 354.509 115.856 354.993C116.389 355.477 116.821 356.061 117.128 356.712C117.435 357.363 117.611 358.069 117.645 358.788V359.2C125.001 358.85 129.76 357.243 131.502 354.502C135.427 348.321 127.906 332.363 120.643 316.941C112.093 298.799 102.409 278.247 102.223 258.56C102.216 257.84 102.351 257.126 102.621 256.458C102.89 255.791 103.288 255.183 103.792 254.669C104.296 254.155 104.897 253.746 105.559 253.464C106.221 253.183 106.933 253.034 107.652 253.027C109.096 253.03 110.481 253.601 111.507 254.617C112.533 255.634 113.117 257.013 113.133 258.457C113.298 275.743 122.405 295.142 130.502 312.264C139.774 332.023 147.861 349.094 140.701 360.374C136.549 367.009 127.947 370.233 114.452 370.233Z" fill="#ED1A37"/>
<path d="M161.068 201.95C161.068 201.95 143.493 262.856 134.912 284.943C118.284 313.851 90.6954 358.087 90.6954 358.087L81.8872 352.936C81.8872 352.936 102.491 301.838 116.347 278.041C120.066 253.316 134.129 198.448 134.129 198.448L161.068 201.95Z" fill="#263238"/>
<path d="M86.42 370.058C86.7695 370.637 87.3081 371.077 87.9447 371.305C88.131 371.35 88.3262 371.341 88.5082 371.281C88.6901 371.221 88.8518 371.112 88.9749 370.965C89.0605 370.886 89.1259 370.788 89.1654 370.678C89.2048 370.569 89.2172 370.452 89.2015 370.336C89.0779 369.1 85.8843 367.493 85.2456 367.184C85.2083 367.169 85.1668 367.168 85.1289 367.181C85.0909 367.194 85.0592 367.221 85.0395 367.256C85.0147 367.294 85.0015 367.339 85.0015 367.385C85.0015 367.431 85.0147 367.475 85.0395 367.514C85.4178 368.404 85.8801 369.256 86.42 370.058ZM88.6143 370.058C88.705 370.172 88.7653 370.306 88.7894 370.45C88.7944 370.49 88.7895 370.53 88.7751 370.568C88.7608 370.606 88.7374 370.639 88.707 370.666C88.6239 370.761 88.5172 370.831 88.3977 370.871C88.2782 370.911 88.1503 370.918 88.0271 370.893C87.3472 370.759 86.4509 369.656 85.5855 367.915C86.7075 368.438 87.7319 369.149 88.6143 370.017V370.058Z" fill="#72BF44"/>
<path d="M84.988 367.555L85.0498 367.606C86.08 368.173 88.7585 368.637 89.3457 367.781C89.4443 367.625 89.4922 367.443 89.483 367.258C89.4738 367.074 89.4078 366.897 89.2942 366.751C88.264 364.928 85.1734 367.071 85.0395 367.163C85.0088 367.188 84.9843 367.219 84.9682 367.255C84.9521 367.291 84.9447 367.33 84.9468 367.369C84.9426 367.434 84.9569 367.498 84.988 367.555ZM88.9027 366.957C88.9327 366.993 88.9603 367.031 88.9851 367.071C89.0985 367.266 89.1191 367.411 89.0573 367.493C88.7173 367.988 86.7393 367.812 85.5855 367.359C86.3581 366.896 88.161 365.958 88.9027 366.957Z" fill="#72BF44"/>
<path d="M170.433 379.34C171.108 379.402 171.784 379.231 172.349 378.856C172.492 378.731 172.598 378.568 172.654 378.386C172.711 378.204 172.715 378.01 172.668 377.826C172.654 377.71 172.612 377.598 172.548 377.5C172.484 377.402 172.398 377.319 172.297 377.259C171.267 376.631 168.043 378.228 167.414 378.557C167.379 378.577 167.351 378.608 167.336 378.646C167.321 378.683 167.32 378.725 167.332 378.763C167.348 378.806 167.374 378.845 167.408 378.876C167.442 378.906 167.483 378.928 167.528 378.939C168.48 379.171 169.453 379.306 170.433 379.34ZM171.71 377.558C171.857 377.549 172.003 377.581 172.133 377.651C172.184 377.651 172.236 377.723 172.256 377.847C172.283 377.97 172.276 378.098 172.236 378.218C172.197 378.337 172.125 378.444 172.03 378.526C171.525 378.99 170.103 379.052 168.187 378.712C169.27 378.131 170.444 377.741 171.659 377.558H171.71Z" fill="#72BF44"/>
<path d="M167.528 378.99H167.6C168.63 378.516 170.639 376.631 170.309 375.652C170.241 375.49 170.126 375.352 169.979 375.255C169.833 375.158 169.661 375.106 169.485 375.106C167.425 374.869 167.281 378.599 167.27 378.753C167.271 378.794 167.281 378.834 167.301 378.87C167.321 378.906 167.349 378.937 167.384 378.959C167.427 378.984 167.478 378.995 167.528 378.99ZM169.382 375.487H169.526C169.743 375.487 169.877 375.58 169.908 375.683C170.103 376.25 168.785 377.743 167.724 378.393C167.816 377.496 168.146 375.487 169.403 375.487H169.382Z" fill="#72BF44"/>
<path d="M134.129 198.499L169.217 202.991C177.129 176.35 179.736 163.482 180.436 157.291C180.622 155.735 180.258 154.163 179.408 152.846C178.557 151.529 177.274 150.551 175.78 150.08C173.719 149.42 171.061 148.637 168.424 148.019C167.528 147.782 166.611 147.566 165.715 147.36C160.462 146.294 155.139 145.606 149.788 145.299C148.994 145.227 148.212 145.186 147.418 145.145C145.863 145.062 144.328 145.042 142.927 145.042C141.875 145.041 140.835 145.258 139.872 145.681C138.909 146.104 138.045 146.723 137.335 147.499C136.624 148.274 136.083 149.189 135.746 150.185C135.408 151.181 135.282 152.236 135.375 153.283C135.653 156.374 135.87 159.248 136.035 161.886C136.426 168.067 136.55 173.012 136.457 177.339C136.246 184.443 135.468 191.519 134.129 198.499Z" fill="#72BF44"/>
<g opacity="0.3">
<path d="M134.129 198.499L169.217 202.991C177.129 176.35 179.736 163.482 180.436 157.291C180.622 155.735 180.258 154.163 179.408 152.846C178.557 151.529 177.274 150.551 175.78 150.08C173.719 149.42 171.061 148.637 168.424 148.019C167.528 147.782 166.611 147.566 165.715 147.36C160.462 146.294 155.139 145.606 149.788 145.299C148.994 145.227 148.212 145.186 147.418 145.145C145.863 145.062 144.328 145.042 142.927 145.042C141.875 145.041 140.835 145.258 139.872 145.681C138.909 146.104 138.045 146.723 137.335 147.499C136.624 148.274 136.083 149.189 135.746 150.185C135.408 151.181 135.282 152.236 135.375 153.283C135.653 156.374 135.87 159.248 136.035 161.886C136.426 168.067 136.55 173.012 136.457 177.339C136.246 184.443 135.468 191.519 134.129 198.499Z" fill="white"/>
</g>
<path opacity="0.3" d="M136.436 177.298C141.072 171.302 142.751 164.441 141.247 160.66L136.014 161.834C136.436 167.995 136.55 172.96 136.436 177.298Z" fill="#72BF44"/>
<path d="M168.424 147.957C167.517 147.72 166.611 147.504 165.715 147.298C160.457 146.237 155.132 145.549 149.777 145.238C148.984 145.176 148.201 145.135 147.418 145.093L146.048 145.032L147.078 146.834C147.223 147.082 150.725 152.81 159.441 158.97L161.305 160.268L163.098 158.898C164.824 157.66 166.235 156.033 167.215 154.148C168.196 152.263 168.72 150.174 168.743 148.05L168.424 147.957Z" fill="white"/>
<path d="M153.651 134.647C153.321 138.984 152.301 143.404 149.777 145.258C149.777 145.258 152.992 150.605 161.316 156.446C166.528 152.459 165.715 147.298 165.715 147.298C160.172 145.238 160.564 141.395 162.902 135.265L158.575 132.937C158.202 132.526 157.716 132.233 157.178 132.096C156.639 131.959 156.073 131.982 155.548 132.165C155.023 132.347 154.564 132.679 154.226 133.121C153.889 133.562 153.689 134.093 153.651 134.647Z" fill="#FF8B7B"/>
<path opacity="0.2" d="M158.575 132.937C158.225 132.55 157.774 132.267 157.273 132.12C156.771 131.973 156.239 131.967 155.735 132.104C155.231 132.24 154.774 132.513 154.415 132.893C154.057 133.273 153.81 133.744 153.702 134.256C155.346 137.57 157.997 140.278 161.274 141.993C161.392 139.669 161.94 137.388 162.892 135.265L158.575 132.937Z" fill="black"/>
<path d="M146.913 121.049C149.067 129.424 149.798 133.009 154.918 136.502C162.614 141.797 172.432 137.326 172.813 128.487C173.173 120.523 169.598 108.161 160.656 106.389C158.682 105.985 156.638 106.094 154.718 106.705C152.798 107.316 151.066 108.408 149.688 109.878C148.31 111.348 147.332 113.147 146.846 115.102C146.36 117.057 146.383 119.105 146.913 121.049Z" fill="#FF8B7B"/>
<path d="M168.228 108.12C163.184 112.604 157.2 115.902 150.715 117.773C150.715 117.773 157.113 131.382 145.142 127.951C141.67 116.361 145.142 110.345 148.232 107.512C157.751 104.421 164.448 103.391 168.228 108.12Z" fill="#263238"/>
<path d="M146.512 129.301C147.214 130.818 148.488 131.996 150.056 132.577C152.116 133.318 153.342 131.546 152.899 129.486C152.497 127.642 150.931 125.025 148.778 125.159C148.312 125.199 147.864 125.353 147.472 125.608C147.081 125.864 146.758 126.212 146.534 126.622C146.309 127.032 146.19 127.491 146.186 127.958C146.182 128.426 146.294 128.887 146.512 129.301Z" fill="#FF8B7B"/>
<path d="M133.871 196.377L131.883 199.313C131.728 199.54 131.986 199.828 132.388 199.88L169.186 204.598C169.506 204.598 169.784 204.515 169.835 204.32L170.557 201.229C170.557 201.013 170.35 200.796 170.011 200.745L134.469 196.191C134.362 196.166 134.25 196.17 134.145 196.203C134.04 196.236 133.945 196.296 133.871 196.377Z" fill="#72BF44"/>
<path d="M138.126 200.961L137.178 200.837C136.993 200.837 136.859 200.693 136.89 200.58L137.858 196.552C137.895 196.484 137.954 196.431 138.025 196.401C138.096 196.371 138.175 196.366 138.25 196.387L139.208 196.511C139.393 196.511 139.527 196.645 139.496 196.768L138.528 200.786C138.497 200.91 138.322 200.982 138.126 200.961Z" fill="#263238"/>
<path d="M166.467 204.588L165.519 204.474C165.334 204.474 165.2 204.33 165.231 204.206L166.199 200.189C166.199 200.075 166.405 199.993 166.59 200.013L167.548 200.137C167.734 200.137 167.868 200.281 167.837 200.395L166.869 204.423C166.838 204.536 166.662 204.618 166.467 204.588Z" fill="#263238"/>
<path d="M152.301 202.774L151.353 202.651C151.158 202.651 151.024 202.517 151.055 202.393L152.023 198.375C152.023 198.252 152.229 198.18 152.425 198.2L153.373 198.324C153.558 198.324 153.692 198.468 153.671 198.581L152.693 202.61C152.672 202.723 152.487 202.795 152.301 202.774Z" fill="#263238"/>
<path d="M161.264 120.688C161.388 121.378 161.861 121.873 162.294 121.78C162.727 121.687 163.005 121.069 162.871 120.379C162.737 119.689 162.263 119.194 161.841 119.287C161.418 119.38 161.161 119.998 161.264 120.688Z" fill="#263238"/>
<path d="M169.052 119.194C169.186 119.884 169.66 120.369 170.083 120.286C170.505 120.204 170.794 119.565 170.66 118.875C170.526 118.185 170.052 117.7 169.629 117.783C169.207 117.865 168.929 118.504 169.052 119.194Z" fill="#263238"/>
<path d="M169.403 117.865L170.969 117.062C170.969 117.062 170.433 118.525 169.403 117.865Z" fill="#263238"/>
<path d="M166.992 120.74C167.913 122.191 169.025 123.511 170.299 124.665C169.997 124.985 169.628 125.236 169.219 125.398C168.809 125.56 168.369 125.629 167.929 125.602L166.992 120.74Z" fill="#FF5652"/>
<path d="M162.13 128.384C162.099 128.42 162.081 128.465 162.08 128.513C162.078 128.56 162.094 128.607 162.123 128.644C162.152 128.682 162.193 128.708 162.239 128.719C162.286 128.73 162.334 128.724 162.377 128.703C163.155 128.306 164.017 128.099 164.891 128.099C165.764 128.099 166.626 128.306 167.404 128.703C167.451 128.73 167.506 128.737 167.558 128.723C167.61 128.71 167.655 128.677 167.682 128.631C167.711 128.584 167.72 128.528 167.708 128.474C167.697 128.421 167.666 128.374 167.621 128.342C166.78 127.912 165.85 127.688 164.906 127.688C163.962 127.688 163.032 127.912 162.191 128.342C162.191 128.342 162.191 128.363 162.13 128.384Z" fill="#263238"/>
<path d="M158.575 118.566C158.639 118.527 158.689 118.469 158.72 118.401C158.934 117.931 159.257 117.52 159.662 117.199C160.067 116.878 160.542 116.658 161.048 116.557C161.102 116.551 161.155 116.534 161.202 116.507C161.25 116.48 161.292 116.444 161.325 116.401C161.359 116.358 161.383 116.308 161.398 116.255C161.412 116.203 161.416 116.148 161.408 116.093C161.403 116.04 161.388 115.987 161.362 115.94C161.336 115.892 161.301 115.85 161.259 115.817C161.216 115.783 161.168 115.758 161.115 115.744C161.063 115.729 161.009 115.726 160.955 115.733C160.311 115.853 159.705 116.125 159.187 116.527C158.67 116.928 158.255 117.447 157.978 118.04C157.938 118.122 157.926 118.214 157.943 118.303C157.961 118.392 158.007 118.472 158.076 118.532C158.144 118.592 158.229 118.627 158.32 118.634C158.41 118.64 158.5 118.616 158.575 118.566Z" fill="#263238"/>
<path d="M171.37 113.343L171.422 113.291C171.453 113.247 171.476 113.196 171.487 113.143C171.499 113.09 171.5 113.035 171.491 112.981C171.481 112.928 171.461 112.876 171.432 112.831C171.402 112.785 171.364 112.745 171.319 112.714C170.786 112.331 170.17 112.081 169.522 111.985C168.873 111.888 168.211 111.947 167.59 112.158C167.49 112.201 167.411 112.281 167.369 112.381C167.327 112.48 167.325 112.592 167.363 112.694C167.404 112.795 167.484 112.875 167.584 112.918C167.684 112.96 167.797 112.961 167.899 112.92C168.392 112.759 168.917 112.717 169.429 112.8C169.942 112.882 170.427 113.086 170.845 113.394C170.924 113.451 171.021 113.476 171.117 113.467C171.214 113.457 171.304 113.413 171.37 113.343Z" fill="#263238"/>
<path d="M161.645 119.359L163.211 118.566C163.211 118.566 162.603 120.018 161.645 119.359Z" fill="#263238"/>
<path d="M107.704 263.989C106.259 263.989 104.873 263.418 103.847 262.402C102.82 261.385 102.237 260.004 102.223 258.56C102.079 243.931 106.952 231.579 116.316 222.843C127.844 212.087 145.821 207.091 166.961 208.76C181.786 209.934 191.294 206.328 202.297 202.136C204.11 201.456 205.934 200.755 207.809 200.075C209.175 199.578 210.682 199.644 212 200.258C213.318 200.872 214.337 201.985 214.834 203.351C215.332 204.717 215.266 206.225 214.652 207.543C214.037 208.86 212.925 209.88 211.558 210.377C209.735 211.036 207.963 211.716 206.201 212.386C194.983 216.651 183.393 221.05 166.096 219.69C148.067 218.258 133.047 222.224 123.796 230.858C116.584 237.533 113.071 246.815 113.185 258.457C113.191 259.176 113.056 259.89 112.787 260.558C112.518 261.225 112.12 261.833 111.616 262.347C111.112 262.861 110.511 263.27 109.849 263.552C109.187 263.834 108.475 263.982 107.756 263.989H107.704Z" fill="#ED1A37"/>
<path d="M234.455 218.115L212.409 226.192C210.57 226.866 208.538 226.781 206.761 225.957C204.984 225.133 203.607 223.636 202.933 221.797L193.829 196.946C193.155 195.107 193.239 193.075 194.064 191.298C194.888 189.52 196.384 188.143 198.224 187.469L220.269 179.393L234.444 218.086L234.455 218.115Z" fill="#ED1A37"/>
<path opacity="0.7" d="M234.455 218.115L212.409 226.192C210.57 226.866 208.538 226.781 206.761 225.957C204.984 225.133 203.607 223.636 202.933 221.797L193.829 196.946C193.155 195.107 193.239 193.075 194.064 191.298C194.888 189.52 196.384 188.143 198.224 187.469L220.269 179.393L234.444 218.086L234.455 218.115Z" fill="white"/>
<path opacity="0.2" d="M210.446 182.984L220.284 179.389L234.46 218.104L224.621 221.709C223.967 221.076 223.466 220.301 223.159 219.443L210.796 185.663C210.473 184.809 210.353 183.892 210.446 182.984Z" fill="#ED1A37"/>
<path d="M242.378 189.032L241.41 189.386L243.771 195.829L244.738 195.475L242.378 189.032Z" fill="#ED1A37"/>
<path d="M239.92 185.374L236.448 175.876C235.853 174.265 234.778 172.876 233.369 171.894C231.96 170.912 230.284 170.386 228.567 170.385C227.59 170.382 226.62 170.553 225.703 170.89L219.44 173.187L219.079 172.219L225.353 169.921C226.382 169.544 227.471 169.352 228.567 169.355C230.497 169.359 232.379 169.954 233.96 171.059C235.542 172.164 236.748 173.726 237.417 175.536L240.888 185.034L239.92 185.374Z" fill="#ED1A37"/>
<path d="M234.626 220.89L243.826 217.563C246.831 216.476 248.387 213.158 247.3 210.152L234.813 175.629C233.725 172.623 230.407 171.068 227.402 172.155L218.202 175.483C215.196 176.57 213.641 179.888 214.728 182.893L227.215 217.416C228.302 220.422 231.62 221.977 234.626 220.89Z" fill="#ED1A37"/>
<path d="M229.36 186.106C229.57 186.68 229.605 187.304 229.461 187.898C229.316 188.493 228.998 189.031 228.548 189.444C228.097 189.858 227.534 190.128 226.929 190.222C226.325 190.315 225.706 190.227 225.152 189.968C224.598 189.71 224.132 189.293 223.815 188.77C223.498 188.247 223.343 187.642 223.37 187.031C223.397 186.42 223.605 185.83 223.967 185.337C224.329 184.845 224.829 184.47 225.404 184.262C226.174 183.983 227.022 184.02 227.764 184.366C228.505 184.712 229.079 185.337 229.36 186.106Z" fill="#263238"/>
<path d="M237.056 207.112C237.265 207.686 237.299 208.309 237.155 208.903C237.01 209.496 236.692 210.034 236.242 210.447C235.792 210.86 235.229 211.13 234.625 211.224C234.021 211.317 233.403 211.23 232.849 210.972C232.295 210.715 231.83 210.298 231.512 209.776C231.194 209.254 231.039 208.65 231.064 208.04C231.09 207.429 231.296 206.84 231.657 206.346C232.017 205.853 232.516 205.478 233.09 205.267C233.471 205.128 233.876 205.065 234.282 205.082C234.688 205.099 235.087 205.196 235.455 205.367C235.823 205.538 236.154 205.781 236.429 206.08C236.704 206.379 236.917 206.73 237.056 207.112Z" fill="#263238"/>
<path d="M146.738 204.629L146.656 204.536C145.049 202.929 143.349 201.177 141.814 199.385C140.279 197.592 138.775 195.8 137.405 193.945C136.061 192.136 134.84 190.24 133.748 188.269C132.966 186.859 132.301 185.388 131.759 183.87C132.377 181.81 133.037 179.749 133.82 177.771C134.716 175.392 135.726 173.053 136.828 170.745C137.93 168.438 139.105 166.171 140.372 163.956C140.99 162.844 141.639 161.741 142.309 160.66L143.339 159.073C143.658 158.558 144.039 158.043 144.307 157.6L144.421 157.435C145.153 156.319 145.423 154.962 145.175 153.65C144.926 152.339 144.178 151.175 143.088 150.404C141.998 149.633 140.651 149.316 139.331 149.518C138.012 149.721 136.822 150.428 136.014 151.491C135.499 152.191 135.108 152.748 134.695 153.356C134.283 153.963 133.912 154.571 133.521 155.179C132.769 156.395 132.038 157.621 131.337 158.867C129.943 161.354 128.681 163.912 127.556 166.532C126.979 167.83 126.526 169.159 125.939 170.488C125.352 171.817 124.96 173.166 124.548 174.547C123.674 177.282 122.955 180.065 122.395 182.881V183.118C122.235 183.87 122.288 184.651 122.549 185.374C123.548 188.016 124.873 190.521 126.495 192.833C128.022 195.027 129.724 197.094 131.584 199.014C133.396 200.864 135.319 202.601 137.343 204.217C139.366 205.829 141.489 207.312 143.699 208.657C144.236 208.971 144.869 209.078 145.479 208.959C146.089 208.84 146.635 208.502 147.014 208.009C147.393 207.516 147.58 206.902 147.538 206.282C147.497 205.661 147.231 205.077 146.79 204.639L146.738 204.629Z" fill="#FF8B7B"/>
<path d="M158.709 209.749L158.575 209.481C158.148 208.588 157.518 207.807 156.737 207.199C155.956 206.591 155.044 206.173 154.073 205.978L146.254 204.392L142.432 206.298C142.844 210.583 148.964 213.148 148.964 213.148L150.705 215.137C151.292 215.803 152.104 216.23 152.986 216.334C153.868 216.439 154.758 216.214 155.485 215.703L157.545 214.23C158.238 213.741 158.735 213.023 158.948 212.203C159.161 211.382 159.076 210.513 158.709 209.749Z" fill="#FF8B7B"/>
<path d="M139.723 145.701C135.386 147.69 130.77 154.571 130.77 154.571L140.042 171.93C140.042 171.93 150.581 159.784 149.695 153.706C148.974 148.545 145.245 143.167 139.723 145.701Z" fill="#72BF44"/>
<g opacity="0.3">
<path d="M139.723 145.701C135.386 147.69 130.77 154.571 130.77 154.571L140.042 171.93C140.042 171.93 150.581 159.784 149.695 153.706C148.974 148.545 145.245 143.167 139.723 145.701Z" fill="white"/>
</g>
<path d="M436.524 373.149C427.447 373.149 418.526 371.284 414.199 365.639C393.719 338.854 393.904 284.974 394.079 232.836C394.182 204.763 396.397 178.235 393.276 157.631C391.442 145.485 385.034 137.151 378.564 132.844C368.963 126.498 355.776 129.908 350.141 131.361C349.439 131.557 348.705 131.611 347.982 131.52C347.259 131.429 346.561 131.195 345.93 130.831C345.298 130.467 344.746 129.981 344.305 129.401C343.863 128.821 343.542 128.158 343.36 127.453C343.178 126.747 343.138 126.012 343.243 125.291C343.348 124.57 343.596 123.877 343.973 123.253C344.349 122.629 344.846 122.086 345.435 121.656C346.023 121.226 346.692 120.918 347.401 120.75C354.437 118.926 370.941 114.672 384.601 123.696C393.822 129.785 401.795 140.653 404.113 155.993C407.359 177.421 405.144 204.34 405.041 232.836C404.865 283.14 404.69 335.155 422.904 358.942C424.377 360.859 430.116 362.579 439.645 362.085C440.49 362.085 441.314 361.992 442.128 361.92C441.759 361.173 441.569 360.352 441.571 359.519C441.571 358.066 442.149 356.672 443.177 355.644C444.205 354.616 445.599 354.039 447.052 354.039C459.033 354.039 465.338 355.069 466.554 360.55C466.904 362.126 467.09 366.082 461.3 368.791C456.973 370.821 446.65 373.149 436.524 373.149Z" fill="#ED1A37"/>
<path d="M316.587 377.877L305.41 373.478L311.302 354.1L322.49 358.489L316.587 377.877Z" fill="#FFC3BD"/>
<path d="M305.142 372.294L317.752 377.239C317.911 377.304 318.044 377.42 318.13 377.569C318.216 377.719 318.25 377.892 318.225 378.063L316.989 385.913C316.957 386.103 316.883 386.283 316.772 386.44C316.661 386.597 316.516 386.728 316.348 386.822C316.18 386.915 315.993 386.97 315.801 386.983C315.609 386.995 315.416 386.964 315.238 386.892C312.075 385.583 307.12 383.42 303.112 381.844C300.65 380.875 295.963 379.33 292.553 377.991C289.143 376.651 290.029 373.108 291.523 373.355C298.312 374.447 300.908 373.283 303.617 372.273C304.109 372.085 304.655 372.092 305.142 372.294Z" fill="#263238"/>
<path opacity="0.2" d="M322.49 358.499L311.302 354.1L308.263 364.093L319.451 368.492L322.49 358.499Z" fill="black"/>
<path d="M336.47 208.502C336.47 208.502 326.354 258.508 322.491 283.171C318.143 310.811 306.656 361.301 306.656 361.301L321.522 367.143C321.522 367.143 342.755 315.447 345.711 290.413C354.623 270.067 372.342 210.192 372.342 210.192L336.47 208.502Z" fill="#4495D1"/>
<path d="M305.935 361.384L322.253 367.802L325.045 362.857L306.8 355.295L305.935 361.384Z" fill="#263238"/>
<path d="M301.938 372.51C301.369 372.333 300.876 371.97 300.537 371.48C300.443 371.298 300.394 371.097 300.394 370.893C300.394 370.688 300.443 370.487 300.537 370.305C300.579 370.194 300.651 370.096 300.746 370.023C300.84 369.95 300.954 369.905 301.072 369.893C302.154 369.78 304.163 372.417 304.359 372.726C304.381 372.76 304.393 372.799 304.393 372.84C304.393 372.88 304.381 372.919 304.359 372.953C304.337 372.987 304.306 373.014 304.27 373.03C304.233 373.047 304.192 373.052 304.153 373.046C303.397 372.948 302.655 372.769 301.938 372.51ZM301.392 370.357C301.309 370.316 301.216 370.298 301.124 370.305C301.062 370.305 300.99 370.305 300.918 370.481C300.849 370.603 300.813 370.742 300.813 370.882C300.813 371.023 300.849 371.161 300.918 371.284C301.217 371.83 302.247 372.314 303.741 372.562C303.113 371.677 302.315 370.927 301.392 370.357Z" fill="#4495D1"/>
<path d="M304.132 373.035C304.099 373.024 304.07 373.002 304.05 372.974C303.39 372.191 302.463 369.77 303.02 368.935C303.105 368.806 303.233 368.71 303.381 368.663C303.529 368.616 303.689 368.621 303.833 368.678C303.987 368.717 304.13 368.787 304.254 368.885C304.378 368.982 304.481 369.105 304.555 369.244C305.193 370.388 304.472 372.798 304.441 372.901C304.429 372.938 304.407 372.971 304.378 372.996C304.349 373.021 304.314 373.038 304.276 373.046C304.254 373.057 304.228 373.062 304.203 373.06C304.178 373.058 304.153 373.05 304.132 373.035ZM303.782 369.1H303.7C303.432 369.038 303.37 369.1 303.339 369.193C303.03 369.687 303.535 371.439 304.122 372.397C304.416 371.444 304.416 370.424 304.122 369.471C304.057 369.31 303.936 369.179 303.782 369.1Z" fill="#4495D1"/>
<path opacity="0.2" d="M358.28 238.78C352.675 245.723 350.46 263.422 350.481 278.175C354.262 267.759 358.599 254.532 362.411 242.519L358.28 238.78Z" fill="black"/>
<path d="M383.86 379.742H371.848L370.251 359.55H382.263L383.86 379.742Z" fill="#FFC3BD"/>
<path d="M371.168 378.732H384.715C384.888 378.731 385.057 378.79 385.192 378.899C385.327 379.008 385.421 379.16 385.456 379.33L387.177 387.077C387.217 387.266 387.214 387.462 387.168 387.65C387.123 387.838 387.035 388.013 386.912 388.162C386.79 388.312 386.635 388.432 386.46 388.513C386.284 388.594 386.093 388.635 385.899 388.633C382.479 388.571 377.091 388.365 372.785 388.365C370.127 388.365 365.203 388.643 361.545 388.643C357.888 388.643 357.425 385.027 358.898 384.697C365.625 383.224 367.624 381.205 369.766 379.268C370.153 378.925 370.651 378.735 371.168 378.732Z" fill="#263238"/>
<path opacity="0.2" d="M382.263 359.55H370.24L371.075 369.965H383.097L382.263 359.55Z" fill="black"/>
<path d="M351.017 209.131C351.017 209.131 357.672 264.854 359.073 284.912C361.02 312.831 368.551 367.946 368.551 367.946H384.519C384.519 367.946 386.229 311.656 383.344 286.612C387.321 264.761 386.064 210.81 386.064 210.81L351.017 209.131Z" fill="#4495D1"/>
<path d="M367.912 368.286H385.446L386.239 362.672L366.49 362.301L367.912 368.286Z" fill="#263238"/>
<path d="M368.231 380.103C367.638 380.147 367.047 379.991 366.552 379.66C366.399 379.525 366.279 379.356 366.204 379.166C366.129 378.976 366.1 378.771 366.119 378.568C366.12 378.446 366.153 378.327 366.217 378.223C366.281 378.12 366.372 378.036 366.48 377.98C367.448 377.486 370.261 379.217 370.601 379.412C370.637 379.433 370.665 379.463 370.684 379.5C370.702 379.536 370.709 379.578 370.704 379.618C370.695 379.66 370.674 379.698 370.645 379.728C370.616 379.759 370.58 379.782 370.539 379.794C369.784 379.983 369.01 380.087 368.231 380.103ZM366.933 378.3C366.841 378.294 366.749 378.312 366.666 378.351C366.614 378.351 366.552 378.434 366.542 378.588C366.52 378.727 366.535 378.869 366.583 379C366.632 379.132 366.713 379.249 366.82 379.34C367.294 379.742 368.437 379.794 369.911 379.495C369.014 378.911 368.014 378.505 366.964 378.3H366.933Z" fill="#4495D1"/>
<path d="M370.498 379.794H370.395C369.499 379.299 367.747 377.393 367.933 376.415C367.964 376.263 368.046 376.126 368.166 376.029C368.287 375.931 368.437 375.878 368.592 375.879C368.748 375.857 368.907 375.868 369.058 375.913C369.209 375.957 369.349 376.033 369.468 376.136C370.498 376.971 370.694 379.485 370.704 379.588C370.706 379.625 370.699 379.663 370.682 379.697C370.666 379.731 370.642 379.761 370.611 379.783C370.575 379.796 370.536 379.799 370.498 379.794ZM368.736 376.26H368.643C368.376 376.26 368.355 376.425 368.345 376.476C368.231 377.043 369.375 378.537 370.24 379.175C370.178 378.18 369.819 377.226 369.21 376.435C369.076 376.325 368.909 376.264 368.736 376.26Z" fill="#4495D1"/>
<path d="M356.528 132.288L346.906 132.164C343.671 132.164 340.457 132.061 337.274 132.01C336.306 132.01 335.358 131.948 334.4 131.907C334.461 131.907 334.503 131.794 334.554 131.742C335.234 131.021 335.914 130.279 336.615 129.568C336.965 129.197 337.308 128.837 337.645 128.487C337.964 128.136 338.376 127.745 338.593 127.456L339.468 126.344C340.158 125.463 340.554 124.388 340.598 123.27C340.643 122.152 340.334 121.048 339.717 120.116C339.099 119.183 338.203 118.469 337.156 118.074C336.109 117.679 334.964 117.624 333.885 117.917L331.979 118.432C331.391 118.607 330.804 118.803 330.217 118.998C329.063 119.4 327.93 119.843 326.807 120.327C324.544 121.327 322.358 122.49 320.265 123.809C318.098 125.195 316.048 126.756 314.136 128.476C312.112 130.316 310.279 132.356 308.665 134.565C308.258 135.116 307.912 135.71 307.635 136.337C306.678 138.529 306.631 141.012 307.504 143.24C308.378 145.467 310.099 147.257 312.292 148.215L313.229 148.627C315.346 149.538 317.538 150.262 319.781 150.79C321.738 151.295 323.593 151.625 325.416 151.934C327.24 152.243 329.022 152.49 330.794 152.707C332.566 152.923 334.317 153.088 336.069 153.232C339.561 153.541 343.022 153.696 346.474 153.799C349.925 153.902 353.304 153.902 356.889 153.737C359.684 153.617 362.323 152.411 364.242 150.375C366.162 148.339 367.21 145.634 367.164 142.837C367.119 140.039 365.982 137.37 363.998 135.397C362.013 133.425 359.337 132.306 356.539 132.278L356.528 132.288Z" fill="#FFC3BD"/>
<path d="M362.133 151.089C353.819 160.567 333.812 157.023 333.812 157.023L334.915 133.411C341.773 131.902 348.766 131.091 355.787 130.99C367.531 130.969 368.788 143.486 362.133 151.089Z" fill="#263238"/>
<path d="M339.942 143.826C339.448 147.638 338.912 152.768 338.593 159.671C334.255 181.614 332.638 197.16 336.47 208.502C339.499 212.242 378.966 211.521 386.064 210.8C390.185 200.601 390.618 171.322 391.102 146.711C391.163 143.319 390.006 140.018 387.842 137.406C385.678 134.794 382.65 133.044 379.306 132.473C370.425 130.899 361.365 130.594 352.397 131.567C349.25 131.925 346.313 133.327 344.056 135.549C341.798 137.771 340.35 140.685 339.942 143.826Z" fill="#263238"/>
<path opacity="0.2" d="M378.235 158.805C378.369 166.305 383.808 178.287 389.927 184.365C390.298 178.029 390.535 171.158 390.721 164.224L378.235 158.805Z" fill="black"/>
<path d="M412.623 173.383L412.272 172.558C410.832 169.122 409.149 165.793 407.235 162.596C405.401 159.506 403.423 156.59 401.373 153.778C399.323 150.965 397.149 148.277 394.924 145.66C393.791 144.362 392.668 143.064 391.483 141.807L389.701 139.932L387.805 138.016C385.819 136.055 383.148 134.945 380.358 134.92C377.568 134.895 374.877 135.958 372.857 137.883C370.837 139.808 369.646 142.444 369.536 145.232C369.427 148.021 370.407 150.742 372.27 152.82L372.579 153.16L378.626 159.887C380.686 162.174 382.654 164.502 384.611 166.82C385.559 167.984 386.538 169.149 387.424 170.333C388.31 171.518 389.247 172.661 390.133 173.836C391.411 175.618 392.647 177.39 393.749 179.131C393.581 180.01 393.367 180.88 393.111 181.738C392.37 184.233 391.5 186.688 390.504 189.093C389.474 191.638 388.382 194.244 387.249 196.809C386.116 199.375 384.9 202.053 383.818 204.629L383.715 204.855C383.241 205.994 383.168 207.26 383.511 208.445C383.853 209.63 384.59 210.663 385.599 211.372C386.607 212.082 387.828 212.426 389.059 212.348C390.29 212.271 391.458 211.775 392.369 210.944C394.641 208.837 396.798 206.609 398.828 204.268C400.889 201.954 402.822 199.515 404.628 196.954C405.545 195.666 406.421 194.327 407.286 192.936C408.185 191.522 409.007 190.06 409.748 188.557C410.582 186.918 411.305 185.225 411.912 183.489C412.702 181.266 413.147 178.934 413.23 176.576C413.257 175.481 413.05 174.392 412.623 173.383Z" fill="#FFC3BD"/>
<path d="M380.007 132.607C393.904 134.987 402.959 153.799 402.959 153.799L386.208 171.817C386.208 171.817 376.555 161.989 370.755 152.882C364.502 142.971 370.055 130.918 380.007 132.607Z" fill="#263238"/>
<path d="M354.622 102.948C352.294 99.0435 351.532 93.6761 355.797 88.2058C354.966 88.3099 354.123 88.1707 353.369 87.805C352.616 87.4393 351.985 86.8627 351.552 86.1454C356.223 82.3245 362.095 80.2807 368.128 80.3763C380.594 80.3763 381.521 85.1873 381.099 88.4736C389.629 89.0196 395.851 111.2 374.227 115.125C361.854 102.093 354.622 102.948 354.622 102.948Z" fill="#263238"/>
<path d="M380.316 88.8754C380.316 88.8754 383.787 85.3315 379.471 81.0459C380.439 81.3113 381.321 81.8227 382.032 82.5304C382.744 83.2381 383.26 84.118 383.53 85.0843C384.138 87.5774 382.459 89.576 380.316 88.8754Z" fill="#263238"/>
<path d="M375.535 112.415C375.206 119.246 374.588 127.013 375.731 132.463C373.959 135.255 369.426 138.469 361.308 139.19C358.424 137.552 354.612 133.545 355.941 131.484C359.392 129.269 360.855 122.563 359.866 117.546L375.535 112.415Z" fill="#FFC3BD"/>
<path opacity="0.2" d="M371.58 113.703L359.846 117.546C360.245 119.683 360.262 121.873 359.897 124.016C363.4 123.902 368.252 121.265 370.076 118.792C370.67 118.097 371.111 117.285 371.37 116.408C371.629 115.531 371.7 114.61 371.58 113.703Z" fill="black"/>
<path d="M378.956 101.598C376.782 109.974 375.937 114.991 370.807 118.504C363.091 123.789 353.386 117.865 353.005 109.016C352.675 101.042 356.281 88.6796 365.244 86.918C367.217 86.5222 369.259 86.6376 371.176 87.2531C373.092 87.8686 374.819 88.9639 376.193 90.4348C377.567 91.9058 378.542 93.7036 379.026 95.6575C379.509 97.6113 379.485 99.6564 378.956 101.598Z" fill="#FFC3BD"/>
<path d="M377.225 89.6068C373.547 92.2235 368.983 103.308 378.255 107.759C386.579 100.445 384.426 89.6068 377.225 89.6068Z" fill="#263238"/>
<path d="M379.347 90.9358C380.924 83.6419 362.514 79.8714 356.683 88.3912C354.705 93.5216 378.235 98.0544 379.347 90.9358Z" fill="#263238"/>
<path d="M365.615 110.489C363.702 109.624 361.651 109.104 359.557 108.954C359.528 108.954 359.499 108.96 359.472 108.971C359.445 108.983 359.421 109 359.4 109.021C359.38 109.042 359.364 109.067 359.354 109.095C359.344 109.122 359.339 109.151 359.341 109.181C359.352 109.247 359.386 109.308 359.437 109.353C359.487 109.398 359.551 109.424 359.619 109.428C361.626 109.573 363.593 110.068 365.429 110.891C365.487 110.916 365.552 110.918 365.611 110.897C365.671 110.876 365.72 110.833 365.749 110.777C365.76 110.75 365.766 110.72 365.765 110.69C365.764 110.66 365.757 110.631 365.745 110.604C365.732 110.577 365.714 110.553 365.692 110.533C365.669 110.513 365.643 110.498 365.615 110.489Z" fill="#263238"/>
<path d="M380.965 110.757C379.472 112.341 377.413 113.271 375.237 113.343C372.352 113.404 371.621 110.654 373.012 108.305C374.268 106.245 377.277 103.607 379.893 104.658C382.51 105.709 382.778 108.789 380.965 110.757Z" fill="#FFC3BD"/>
<path d="M365.635 101.454C365.501 102.144 365.028 102.639 364.605 102.546C364.183 102.453 363.905 101.825 364.039 101.135C364.172 100.445 364.646 99.9604 365.069 100.105C365.491 100.249 365.769 100.733 365.635 101.454Z" fill="#263238"/>
<path d="M357.837 99.9398C357.703 100.63 357.229 101.114 356.807 101.032C356.384 100.949 356.096 100.311 356.23 99.6204C356.364 98.9302 356.837 98.4357 357.26 98.5284C357.682 98.6211 357.929 99.2495 357.837 99.9398Z" fill="#263238"/>
<path d="M360.247 100.733C359.011 102.683 357.514 104.454 355.797 105.997C356.827 107.368 359.104 107.1 359.104 107.1L360.247 100.733Z" fill="#ED847E"/>
<path d="M364.512 97.4467C364.586 97.4306 364.662 97.4335 364.734 97.4551C364.806 97.4767 364.872 97.5164 364.924 97.5703C365.255 97.9701 365.676 98.2859 366.152 98.4918C366.628 98.6977 367.147 98.7879 367.665 98.755C367.774 98.7401 367.884 98.7684 367.973 98.8338C368.061 98.8993 368.121 98.9967 368.139 99.1053C368.147 99.1589 368.145 99.2137 368.132 99.2664C368.119 99.3191 368.095 99.3686 368.063 99.412C368.03 99.4553 367.989 99.4915 367.941 99.5185C367.894 99.5455 367.842 99.5626 367.788 99.5689C367.134 99.6215 366.477 99.5172 365.871 99.2645C365.266 99.0118 364.729 98.6182 364.306 98.1163C364.268 98.0788 364.237 98.034 364.216 97.9845C364.195 97.9349 364.184 97.8816 364.184 97.8278C364.184 97.774 364.195 97.7208 364.216 97.6712C364.237 97.6217 364.268 97.5768 364.306 97.5394C364.367 97.4939 364.438 97.4623 364.512 97.4467Z" fill="#263238"/>
<path d="M355.426 95.1596C355.34 95.1419 355.264 95.0945 355.21 95.0257C355.175 94.9828 355.149 94.9333 355.134 94.8802C355.119 94.8272 355.115 94.7716 355.121 94.7168C355.128 94.6621 355.146 94.6092 355.173 94.5614C355.201 94.5136 355.238 94.4718 355.282 94.4385C355.788 94.0238 356.385 93.7356 357.025 93.5976C357.664 93.4597 358.328 93.476 358.96 93.6452C359.064 93.6806 359.15 93.7553 359.2 93.8535C359.25 93.9516 359.26 94.0654 359.227 94.1707C359.186 94.2701 359.11 94.3511 359.013 94.3985C358.917 94.4459 358.806 94.4565 358.702 94.4282C358.199 94.2998 357.672 94.2926 357.165 94.4072C356.658 94.5218 356.186 94.755 355.787 95.0875C355.739 95.1308 355.68 95.1603 355.616 95.173C355.553 95.1857 355.487 95.1811 355.426 95.1596Z" fill="#263238"/>
<path d="M388.681 204.33L379.832 204.268L384.406 214.426C384.406 214.426 391.957 212.808 391.545 208.708L388.681 204.33Z" fill="#FFC3BD"/>
<path d="M375.33 211.243L376.782 214.106C377.173 214.869 377.834 215.459 378.636 215.76C379.438 216.061 380.324 216.052 381.119 215.734L384.406 214.426L379.832 204.268L376.319 206.947C375.675 207.432 375.224 208.129 375.043 208.915C374.862 209.7 374.963 210.524 375.33 211.243Z" fill="#FFC3BD"/>
<path d="M321.316 196.851C320.247 196.84 319.205 196.517 318.316 195.922C317.428 195.327 316.733 194.485 316.316 193.501C315.899 192.516 315.779 191.431 315.97 190.379C316.161 189.327 316.655 188.354 317.391 187.579C321.326 183.52 324.881 180.367 328.012 177.617C335.574 170.951 338.181 168.345 337.933 163.349C337.563 160.266 336.908 157.224 335.976 154.262C333.72 145.969 331.165 136.584 335.543 129.053C337.892 125.005 341.879 122.233 347.401 120.812C348.797 120.48 350.267 120.71 351.496 121.45C352.725 122.191 353.614 123.384 353.973 124.774C354.332 126.163 354.131 127.638 353.415 128.881C352.698 130.124 351.523 131.037 350.141 131.423C346.257 132.453 345.32 134.029 344.99 134.565C342.93 138.119 344.918 145.475 346.525 151.378C347.689 155.1 348.469 158.932 348.853 162.813C349.369 173.372 343.136 178.874 335.234 185.838C332.257 188.475 328.868 191.463 325.221 195.213C324.712 195.732 324.105 196.145 323.434 196.426C322.763 196.708 322.043 196.852 321.316 196.851Z" fill="#ED1A37"/>
<path d="M333.339 118.143L341.91 115.949L339.911 126.91C339.911 126.91 332.195 127.147 331.618 123.078L333.339 118.143Z" fill="#FFC3BD"/>
<path d="M347.926 121.759L347.267 124.623C347.064 125.498 346.542 126.266 345.802 126.775C345.062 127.284 344.159 127.497 343.27 127.374L339.911 126.91L341.91 115.949L345.845 117.649C346.618 117.982 347.25 118.576 347.63 119.327C348.011 120.078 348.115 120.939 347.926 121.759Z" fill="#FFC3BD"/>
<path d="M318.252 178.825L318.019 178.592C316.976 177.55 315.287 177.55 314.245 178.592L283.866 208.982C282.825 210.024 282.825 211.714 283.867 212.755L284.1 212.988C285.142 214.03 286.832 214.03 287.874 212.988L318.252 182.598C319.294 181.556 319.294 179.867 318.252 178.825Z" fill="#263238"/>
<path d="M334.085 194.638L333.852 194.404C332.81 193.362 331.12 193.362 330.078 194.404L299.694 224.789C298.652 225.831 298.652 227.52 299.694 228.562L299.927 228.795C300.969 229.837 302.659 229.837 303.701 228.795L334.085 198.411C335.127 197.369 335.127 195.68 334.085 194.638Z" fill="#263238"/>
<path d="M293.452 190.137L314.861 168.727C315.547 168.042 316.361 167.497 317.258 167.126C318.154 166.755 319.114 166.564 320.084 166.564C321.054 166.564 322.015 166.755 322.911 167.126C323.807 167.497 324.621 168.042 325.307 168.727L344.021 187.442C344.707 188.128 345.251 188.942 345.623 189.838C345.994 190.734 346.185 191.695 346.185 192.665C346.185 193.635 345.994 194.595 345.623 195.491C345.251 196.388 344.707 197.202 344.021 197.888L322.612 219.297L293.452 190.137Z" fill="#ED1A37"/>
<path opacity="0.7" d="M293.452 190.137L314.861 168.727C315.547 168.042 316.361 167.497 317.258 167.126C318.154 166.755 319.114 166.564 320.084 166.564C321.054 166.564 322.015 166.755 322.911 167.126C323.807 167.497 324.621 168.042 325.307 168.727L344.021 187.442C344.707 188.128 345.251 188.942 345.623 189.838C345.994 190.734 346.185 191.695 346.185 192.665C346.185 193.635 345.994 194.595 345.623 195.491C345.251 196.388 344.707 197.202 344.021 197.888L322.612 219.297L293.452 190.137Z" fill="white"/>
<path opacity="0.2" d="M300.836 182.696L293.418 190.103L322.583 219.268L329.991 211.85C329.696 210.988 329.206 210.205 328.559 209.563L303.123 184.179C302.487 183.513 301.703 183.005 300.836 182.696Z" fill="#ED1A37"/>
<path d="M292.168 186.368L291.636 186.899C289.375 189.16 289.375 192.826 291.636 195.087L317.606 221.057C319.867 223.318 323.532 223.318 325.793 221.057L326.325 220.525C328.586 218.264 328.586 214.598 326.325 212.337L300.356 186.368C298.095 184.107 294.429 184.107 292.168 186.368Z" fill="#ED1A37"/>
<path d="M372.888 0.762329H143.112C138.321 0.762329 134.438 4.64594 134.438 9.43662V51.3452C134.438 56.1358 138.321 60.0194 143.112 60.0194H372.888C377.678 60.0194 381.562 56.1358 381.562 51.3452V9.43662C381.562 4.64594 377.678 0.762329 372.888 0.762329Z" fill="white"/>
<path d="M372.888 60.7818H143.153C140.651 60.7791 138.253 59.784 136.483 58.0149C134.714 56.2457 133.719 53.8471 133.717 51.3452V9.43663C133.719 6.93472 134.714 4.53606 136.483 2.76694C138.253 0.997816 140.651 0.00272688 143.153 0H372.888C375.39 0.00272688 377.788 0.997816 379.557 2.76694C381.327 4.53606 382.322 6.93472 382.324 9.43663V51.3452C382.322 53.8471 381.327 56.2457 379.557 58.0149C377.788 59.784 375.39 60.7791 372.888 60.7818ZM143.153 1.5247C141.056 1.52742 139.045 2.36187 137.562 3.84506C136.078 5.32824 135.244 7.33909 135.241 9.43663V51.3452C135.244 53.4427 136.078 55.4536 137.562 56.9367C139.045 58.4199 141.056 59.2544 143.153 59.2571H372.888C374.985 59.2544 376.996 58.4199 378.479 56.9367C379.963 55.4536 380.797 53.4427 380.8 51.3452V9.43663C380.797 7.33909 379.963 5.32824 378.479 3.84506C376.996 2.36187 374.985 1.52742 372.888 1.5247H143.153Z" fill="#263238"/>
<g opacity="0.4">
<path d="M154.753 40.693V18.3994H163.16C164.296 18.3781 165.433 18.4469 166.559 18.6055C167.54 18.7469 168.478 19.0983 169.31 19.6357C170.081 20.1859 170.696 20.9281 171.092 21.7888C171.693 23.0661 171.906 24.4918 171.705 25.889C171.504 27.2863 170.896 28.5938 169.959 29.6492C168.757 30.9541 166.58 31.61 163.427 31.6169H157.7V40.6827L154.753 40.693ZM157.7 29.0002H163.469C164.901 29.1466 166.339 28.7817 167.528 27.97C167.937 27.592 168.257 27.128 168.465 26.6114C168.674 26.0948 168.765 25.5385 168.733 24.9824C168.757 24.1271 168.508 23.2864 168.022 22.582C167.574 21.9382 166.914 21.4716 166.157 21.2634C165.25 21.102 164.328 21.0363 163.407 21.0676H157.7V29.0002Z" fill="#263238"/>
<path d="M185.721 38.7047C184.852 39.4688 183.864 40.0849 182.795 40.5281C181.829 40.8831 180.806 41.0611 179.777 41.0535C178.289 41.1571 176.816 40.6933 175.656 39.7555C175.192 39.3392 174.824 38.8267 174.579 38.2538C174.333 37.6809 174.216 37.0613 174.234 36.4382C174.224 35.6798 174.409 34.9314 174.77 34.2645C175.125 33.6538 175.615 33.1323 176.202 32.7398C176.81 32.3389 177.478 32.0364 178.18 31.8435C178.982 31.6592 179.794 31.5216 180.611 31.4315C182.266 31.2808 183.902 30.9668 185.494 30.494C185.494 30.1231 185.494 29.8759 185.494 29.7831C185.54 29.3576 185.495 28.9272 185.362 28.5205C185.229 28.1137 185.01 27.74 184.722 27.424C183.838 26.7515 182.74 26.4221 181.631 26.4968C180.634 26.4245 179.638 26.6581 178.778 27.1664C178.068 27.7918 177.589 28.637 177.418 29.5668L174.739 29.1959C174.924 28.1922 175.336 27.2442 175.944 26.4247C176.582 25.6653 177.421 25.1012 178.365 24.797C179.546 24.397 180.787 24.2053 182.033 24.2304C183.172 24.1913 184.309 24.3553 185.391 24.7146C186.096 24.9148 186.73 25.3119 187.217 25.8593C187.704 26.4068 188.025 27.0818 188.142 27.8052C188.256 28.6414 188.301 29.4856 188.276 30.3292V33.9761C188.236 35.5887 188.294 37.2022 188.451 38.8077C188.576 39.4862 188.809 40.1402 189.141 40.7445H186.288C185.974 40.1054 185.782 39.4138 185.721 38.7047ZM185.494 32.5853C184.05 33.1033 182.549 33.4491 181.023 33.6155C180.207 33.7031 179.404 33.8899 178.633 34.1718C178.191 34.351 177.814 34.6599 177.552 35.0578C177.248 35.5429 177.127 36.1202 177.21 36.6864C177.293 37.2526 177.575 37.7709 178.005 38.1484C178.693 38.6843 179.556 38.945 180.426 38.8798C181.407 38.8987 182.377 38.6607 183.238 38.1896C184.026 37.7628 184.66 37.0998 185.051 36.294C185.388 35.425 185.539 34.495 185.494 33.564V32.5853Z" fill="#263238"/>
<path d="M192.005 42.0115L194.663 42.403C194.687 42.7494 194.781 43.0872 194.941 43.3956C195.1 43.7039 195.321 43.9762 195.59 44.1956C196.409 44.7478 197.386 45.0157 198.372 44.9579C199.407 45.0256 200.436 44.7583 201.308 44.1956C202.007 43.6723 202.503 42.922 202.709 42.0733C202.893 40.912 202.959 39.735 202.905 38.5604C202.364 39.2203 201.681 39.7487 200.907 40.1057C200.132 40.4626 199.286 40.6388 198.434 40.6208C197.445 40.6697 196.459 40.4767 195.561 40.0584C194.663 39.6401 193.881 39.0092 193.283 38.2204C192.043 36.5567 191.397 34.5253 191.449 32.4513C191.433 30.9865 191.721 29.5344 192.294 28.1863C192.786 26.9638 193.628 25.9138 194.715 25.1678C195.829 24.4548 197.132 24.0957 198.454 24.1376C199.365 24.1255 200.266 24.3281 201.084 24.729C201.902 25.1299 202.614 25.7179 203.162 26.4452V24.4981H205.686V38.4986C205.798 40.3141 205.538 42.1333 204.924 43.8453C204.394 44.9133 203.539 45.786 202.482 46.3384C201.208 46.9864 199.79 47.2985 198.362 47.245C196.704 47.3237 195.064 46.8688 193.684 45.9469C193.092 45.4887 192.627 44.8866 192.333 44.1977C192.039 43.5089 191.926 42.7563 192.005 42.0115ZM194.261 32.3071C194.12 33.9538 194.569 35.597 195.528 36.943C195.911 37.4097 196.394 37.7838 196.942 38.0372C197.49 38.2905 198.088 38.4166 198.691 38.4058C199.293 38.4141 199.889 38.288 200.437 38.0367C200.984 37.7854 201.468 37.4153 201.854 36.9533C202.815 35.6392 203.269 34.022 203.131 32.3998C203.254 30.7983 202.785 29.2075 201.813 27.9287C201.433 27.4561 200.951 27.0754 200.403 26.815C199.856 26.5545 199.256 26.4211 198.65 26.4246C198.056 26.4227 197.47 26.5552 196.935 26.8121C196.399 27.069 195.929 27.4437 195.559 27.9081C194.606 29.1756 194.145 30.7459 194.261 32.3277V32.3071Z" fill="#263238"/>
<path d="M220.912 35.4903L223.746 35.8406C223.374 37.3673 222.5 38.7245 221.263 39.6936C219.913 40.6443 218.287 41.1224 216.637 41.0534C215.599 41.1161 214.559 40.9585 213.586 40.5909C212.613 40.2234 211.729 39.6543 210.992 38.9209C209.527 37.2273 208.787 35.0257 208.931 32.7912C208.778 30.4961 209.516 28.2303 210.992 26.4658C211.686 25.7253 212.53 25.1418 213.468 24.7545C214.407 24.3671 215.417 24.1849 216.431 24.2199C217.42 24.1857 218.405 24.3648 219.319 24.7452C220.233 25.1257 221.054 25.6984 221.726 26.4246C223.185 28.1422 223.923 30.3568 223.787 32.6058C223.787 32.7706 223.787 33.0179 223.787 33.3372H211.744C211.724 34.8485 212.259 36.3145 213.248 37.458C213.68 37.9174 214.205 38.2805 214.787 38.5237C215.369 38.7669 215.996 38.8847 216.627 38.8694C217.546 38.8925 218.447 38.6139 219.192 38.0761C220.015 37.409 220.615 36.5071 220.912 35.4903ZM211.929 31.0708H220.912C220.889 29.9602 220.53 28.8827 219.882 27.9802C219.477 27.4705 218.959 27.0619 218.369 26.7866C217.779 26.5113 217.133 26.3768 216.483 26.3937C215.897 26.3792 215.315 26.4842 214.771 26.702C214.227 26.9198 213.734 27.2461 213.32 27.6608C212.42 28.5687 211.909 29.7922 211.898 31.0708H211.929Z" fill="#263238"/>
<path d="M235.799 40.693V24.4983H238.261V26.7956C238.813 25.9412 239.578 25.2462 240.482 24.7799C241.386 24.3135 242.396 24.0921 243.412 24.1377C244.335 24.1265 245.25 24.3054 246.101 24.6631C246.827 24.9423 247.461 25.4164 247.935 26.0333C248.36 26.653 248.651 27.3548 248.79 28.0936C248.908 28.9744 248.956 29.8632 248.934 30.7516V40.6827H246.204V30.8649C246.238 30.0185 246.13 29.1723 245.884 28.3615C245.663 27.809 245.264 27.3454 244.751 27.0428C244.171 26.7041 243.507 26.5329 242.835 26.5484C241.725 26.5279 240.648 26.9249 239.817 27.661C238.972 28.4027 238.549 29.8038 238.549 31.8745V40.693H235.799Z" fill="#263238"/>
<path d="M252.107 32.6161C252.107 29.6286 252.938 27.4136 254.6 25.9714C256.014 24.7673 257.823 24.1288 259.679 24.1788C260.688 24.1418 261.694 24.317 262.631 24.6932C263.568 25.0695 264.415 25.6383 265.119 26.3628C265.861 27.1731 266.434 28.1236 266.804 29.1586C267.174 30.1936 267.333 31.2921 267.272 32.3895C267.348 34.075 267.027 35.7548 266.334 37.2933C265.723 38.4668 264.776 39.4316 263.614 40.0645C262.423 40.7385 261.078 41.0934 259.71 41.0947C258.69 41.1434 257.671 40.9747 256.721 40.6C255.77 40.2253 254.911 39.653 254.198 38.921C253.453 38.059 252.884 37.0585 252.525 35.9767C252.167 34.8949 252.024 33.7529 252.107 32.6161ZM254.92 32.6161C254.795 34.2769 255.274 35.9268 256.269 37.2624C256.686 37.7577 257.209 38.1535 257.799 38.4209C258.389 38.6882 259.031 38.8204 259.679 38.8077C260.325 38.8205 260.965 38.6872 261.552 38.4178C262.139 38.1485 262.657 37.7499 263.068 37.252C264.079 35.8921 264.562 34.2122 264.428 32.5234C264.549 30.8949 264.06 29.2797 263.058 27.9905C262.635 27.507 262.113 27.1195 261.527 26.854C260.942 26.5885 260.306 26.4511 259.664 26.4511C259.021 26.4511 258.385 26.5885 257.8 26.854C257.215 27.1195 256.693 27.507 256.269 27.9905C255.271 29.3171 254.788 30.9605 254.909 32.6161H254.92Z" fill="#263238"/>
<path d="M276.42 38.2411L276.822 40.6621C276.145 40.8154 275.455 40.8982 274.761 40.9093C273.964 40.9485 273.171 40.7855 272.454 40.4354C271.944 40.157 271.537 39.7241 271.289 39.1992C271.006 38.1458 270.894 37.0533 270.96 35.9643V26.6925H268.951V24.4982H270.96V20.5422L273.68 18.8939V24.4982H276.43V26.6307H273.68V36.0777C273.65 36.5835 273.699 37.0908 273.824 37.5817C273.923 37.8018 274.089 37.9854 274.298 38.1072C274.585 38.2603 274.91 38.3315 275.235 38.3132C275.631 38.3156 276.027 38.2915 276.42 38.2411Z" fill="#263238"/>
<path d="M288.411 40.6929V26.6719H285.99V24.4981H288.411V22.8189C288.37 21.9947 288.468 21.1694 288.7 20.3773C288.96 19.663 289.449 19.0546 290.09 18.6466C290.937 18.1587 291.907 17.9294 292.882 17.9873C293.74 17.9981 294.596 18.0877 295.437 18.2551L295.025 20.6452C294.492 20.5452 293.95 20.4934 293.408 20.4907C292.773 20.4314 292.14 20.6238 291.646 21.0264C291.239 21.6047 291.056 22.3114 291.131 23.0147V24.4981H294.283V26.6307H291.131V40.6929H288.411Z" fill="#263238"/>
<path d="M295.386 32.6161C295.386 29.6286 296.217 27.4136 297.879 25.9714C299.296 24.7675 301.109 24.1292 302.968 24.1788C303.977 24.1418 304.983 24.317 305.92 24.6932C306.857 25.0695 307.704 25.6383 308.407 26.3628C309.146 27.1747 309.716 28.1261 310.082 29.161C310.448 30.1959 310.604 31.2936 310.54 32.3895C310.619 34.0742 310.302 35.7539 309.613 37.2933C309.001 38.4698 308.05 39.4353 306.883 40.0645C305.695 40.7385 304.354 41.0935 302.989 41.0947C301.969 41.1394 300.951 40.969 300.001 40.5945C299.052 40.22 298.192 39.6498 297.477 38.921C296.731 38.059 296.163 37.0585 295.804 35.9767C295.445 34.8949 295.303 33.7529 295.386 32.6161ZM298.208 32.6161C298.078 34.2775 298.558 35.9293 299.558 37.2624C299.981 37.7492 300.503 38.1395 301.089 38.4071C301.676 38.6746 302.313 38.813 302.958 38.813C303.602 38.813 304.239 38.6746 304.826 38.4071C305.412 38.1395 305.935 37.7492 306.357 37.2624C307.36 35.8989 307.838 34.2208 307.707 32.5337C307.825 30.9071 307.341 29.2937 306.347 28.0009C305.923 27.5173 305.402 27.1298 304.816 26.8643C304.231 26.5988 303.595 26.4614 302.952 26.4614C302.31 26.4614 301.674 26.5988 301.089 26.8643C300.503 27.1298 299.981 27.5173 299.558 28.0009C298.551 29.3197 298.06 30.9609 298.178 32.6161H298.208Z" fill="#263238"/>
<path d="M324.314 40.6929V38.3235C323.765 39.1854 323.002 39.8902 322.099 40.3687C321.196 40.8472 320.184 41.0832 319.163 41.0535C318.245 41.0648 317.335 40.8786 316.495 40.5075C315.773 40.2215 315.14 39.7486 314.661 39.1373C314.235 38.5189 313.947 37.8163 313.816 37.0769C313.682 36.2322 313.627 35.3769 313.651 34.522V24.4982H316.392V33.4609C316.358 34.4254 316.413 35.391 316.556 36.3455C316.704 37.0252 317.091 37.6289 317.648 38.0453C318.25 38.4703 318.973 38.6873 319.709 38.6634C320.522 38.6638 321.319 38.443 322.016 38.0247C322.708 37.6409 323.249 37.0345 323.551 36.3043C323.894 35.2901 324.044 34.2211 323.994 33.1519V24.4982H326.735V40.6929H324.314Z" fill="#263238"/>
<path d="M331.051 40.693V24.4983H333.513V26.7956C334.065 25.9412 334.831 25.2462 335.735 24.7799C336.638 24.3135 337.648 24.0921 338.664 24.1377C339.587 24.1265 340.503 24.3054 341.353 24.6631C342.079 24.9423 342.714 25.4164 343.187 26.0333C343.612 26.653 343.904 27.3548 344.042 28.0936C344.16 28.9744 344.208 29.8632 344.186 30.7516V40.6827H341.446V30.8649C341.48 30.0185 341.372 29.1723 341.127 28.3615C340.905 27.809 340.506 27.3454 339.993 27.0428C339.413 26.7041 338.749 26.5329 338.077 26.5484C336.968 26.5299 335.891 26.9267 335.059 27.661C334.214 28.4027 333.792 29.8038 333.792 31.8745V40.693H331.051Z" fill="#263238"/>
<path d="M358.856 40.6929V38.6325C358.387 39.4019 357.72 40.0307 356.924 40.4531C356.128 40.8754 355.234 41.0757 354.334 41.0329C353.076 41.0507 351.842 40.6919 350.79 40.0027C349.687 39.2675 348.816 38.2353 348.276 37.0254C347.664 35.6483 347.362 34.1538 347.39 32.6471C347.368 31.1457 347.641 29.6547 348.194 28.2584C348.661 27.0213 349.508 25.9643 350.615 25.2399C351.688 24.547 352.943 24.1884 354.22 24.2097C355.124 24.1939 356.017 24.4065 356.816 24.8279C357.551 25.2074 358.186 25.7544 358.671 26.4247V18.3994H361.39V40.6929H358.856ZM350.202 32.6368C350.078 34.2881 350.541 35.9302 351.511 37.2727C351.877 37.7454 352.345 38.1291 352.88 38.3949C353.415 38.6608 354.004 38.8019 354.601 38.8077C355.195 38.8138 355.782 38.6843 356.317 38.429C356.853 38.1736 357.323 37.7993 357.692 37.3345C358.623 36.0384 359.065 34.4543 358.939 32.8634C359.08 31.1411 358.629 29.4221 357.661 27.9906C357.293 27.5068 356.818 27.1153 356.272 26.847C355.727 26.5788 355.127 26.4413 354.519 26.4453C353.924 26.4332 353.334 26.5612 352.797 26.8188C352.26 27.0765 351.791 27.4567 351.428 27.9288C350.496 29.3129 350.064 30.9737 350.202 32.6368Z" fill="#263238"/>
</g>
<path d="M258 90.4619C268.548 90.4619 277.1 81.9106 277.1 71.362C277.1 60.8134 268.548 52.2621 258 52.2621C247.451 52.2621 238.9 60.8134 238.9 71.362C238.9 81.9106 247.451 90.4619 258 90.4619Z" fill="#263238"/>
<path d="M258 87.6185C266.978 87.6185 274.256 80.3401 274.256 71.3619C274.256 62.3837 266.978 55.1053 258 55.1053C249.021 55.1053 241.743 62.3837 241.743 71.3619C241.743 80.3401 249.021 87.6185 258 87.6185Z" fill="white"/>
<path d="M268.992 67.8593H261.369L267.766 48.9346L247.008 74.8647H254.631L248.234 93.7895L268.992 67.8593Z" fill="#ED1A37"/>
<path d="M269.644 85.2723L271.917 82.9995L246.355 57.4378L244.082 59.7106L269.644 85.2723Z" fill="#263238"/>
</svg>
